<svg width="751" height="100" viewBox="0 0 751 100" fill="none" xmlns="http://www.w3.org/2000/svg">
<path d="M128.522 22.9994C105.232 22.9994 90.0601 40.7673 90.0601 61.4222C90.0601 82.0771 104.612 99.9806 128.522 99.9806C152.432 99.9806 166.692 81.864 166.692 61.4222C166.692 40.9804 152.219 22.9994 128.522 22.9994ZM128.386 81.8446C116.392 81.8446 110.792 71.9046 110.792 61.4028C110.792 50.901 116.412 41.0967 128.522 41.0967C140.632 41.0967 145.921 50.8235 145.921 61.4028C145.999 71.9046 140.515 81.8446 128.386 81.8446Z" fill="#2687E9"/>
<path d="M80.5852 75.5086L70.3352 67.4675C65.4912 75.0823 57.7214 80.1589 47.2002 80.1589C30.8467 80.1589 21.43 67.0413 21.43 49.9903C21.43 32.9393 29.8779 19.9574 47.6264 19.9574C57.9539 19.9574 64.8711 24.6076 69.5989 32.2224L79.9845 24.0457C82.4065 22.1469 82.8909 18.6979 81.1664 16.2178C73.1641 4.96026 60.8409 0.0968628 47.4714 0.0968628C15.0358 0.0968628 0 24.8401 0 49.9322C0 79.6745 17.2447 99.9806 47.1227 99.9806C61.4028 99.9806 73.9392 94.7684 81.7671 83.2784C83.5691 80.7402 83.0072 77.2912 80.6627 75.4505L80.5852 75.528V75.5086Z" fill="#2687E9"/>
<path d="M220.965 22.9994C210.715 22.9994 202.538 27.5334 196.997 35.032C196.861 33.0169 196.59 30.9242 196.105 28.696C195.214 25.964 193.199 24.7239 190.079 24.7239H177.95V99.9612H198.741V64.1349C198.741 48.8471 205.677 41.5036 215.985 41.5036C224.162 41.5036 228.735 46.6189 228.735 57.0045V99.9612H249.525V57.8764C249.39 34.7413 239.062 23.0575 220.907 23.0575H220.984V22.98L220.965 22.9994Z" fill="#2687E9"/>
<path d="M301.744 80.837C300.562 81.2052 299.322 81.4183 298.062 81.4183C289.75 81.4183 285.042 76.303 285.042 65.6656V41.1354H303.604C306.723 41.1354 309.223 38.4809 309.223 35.3032V23.1544H285.042V12.3619C285.042 9.12612 282.484 6.52972 279.423 6.52972H264.251V64.8711C264.251 86.5336 273.397 99.9806 291.765 99.9806C302.441 99.9806 309.979 95.0978 313.389 92.3464L307.983 83.4334C306.588 81.2827 304.108 80.1976 301.744 80.9145H301.821L301.744 80.837Z" fill="#2687E9"/>
<path d="M354.621 22.9994C343.189 22.9994 334.528 25.1889 326.003 31.1761C323.154 33.1525 322.67 37.1633 324.821 39.8372L330.575 47.1032C338.132 41.0385 344.565 39.8372 351.909 39.8372C361.616 39.8372 367.991 45.1269 367.991 56.5394V57.4501C362.236 55.3381 355.726 54.2143 348.46 54.2143C327.533 54.2143 318.95 65.6268 318.95 77.4656C318.95 89.3044 326.371 99.8837 345.146 99.8837C357.14 99.8837 365.162 94.594 370.025 87.8318C370.161 89.8082 370.432 93.5284 370.781 95.7179C371.401 98.6824 373.687 99.8837 376.807 99.8837H387.541L387.483 57.6826C387.483 33.5012 373.009 22.9994 354.641 22.9994H354.621ZM367.158 70.5096C365.917 78.3956 359.736 84.4604 348.518 84.4604C342.279 84.4604 338.055 81.9996 338.055 76.4193C338.055 70.4902 342.221 67.6031 351.85 67.6031C357.605 67.6031 362.314 68.3007 367.293 69.5795L367.158 70.4902V70.5096Z" fill="#2687E9"/>
<path d="M575.722 81.1858H543.015L576.962 41.5036C578.899 39.2947 579.655 37.1634 579.655 34.0826V22.9219H523.736C520.267 22.9219 518.117 24.9758 518.117 28.8704V41.2905H553.943L520.132 80.9727C518.194 83.0266 517.225 85.1579 517.225 88.2387V99.5544H581.321V87.1343C581.244 83.2397 579.171 81.1858 575.644 81.1858H575.722Z" fill="#2687E9"/>
<path d="M661.422 28.0953C661.422 25.2858 659.213 22.98 656.578 22.98H640.709V58.9614C640.709 74.2492 634.199 81.4571 623.871 81.4571C615.966 81.4571 611.606 76.3418 611.606 66.1112V28.0178C611.606 25.2083 609.397 22.9025 606.762 22.9025H590.893V65.2199C590.893 88.0643 601.085 99.9612 618.95 99.9612C629.006 99.9612 636.892 95.4272 642.434 88.0643C642.569 90.0019 642.782 93.9353 643.286 95.8923C643.984 98.7018 646.193 100 649.39 100H661.442L661.5 28.0178L661.422 28.0953Z" fill="#2687E9"/>
<path d="M691.145 0.0581055H675.974V94.1096C675.974 97.3842 678.531 100.019 681.593 100.019H696.764V5.96781C696.764 2.69325 694.207 0.0581055 691.145 0.0581055Z" fill="#2687E9"/>
<path d="M467.623 0.0581055H448.15L411.277 99.7481H432.474L440.574 75.9155H479.035L487.212 99.7481H509.029L474.133 4.63086C473.028 1.51131 470.742 0.0581055 467.623 0.0581055ZM446.348 57.2369L459.795 18.9498L473.242 57.2369H446.348Z" fill="#2687E9"/>
<path d="M725.848 30.0717C723.406 28.6766 721.488 26.7584 720.132 24.317C718.775 21.8756 718.078 19.1048 718.078 16.0434C718.078 12.982 718.795 10.3081 720.209 7.88607C721.624 5.46406 723.542 3.54582 725.964 2.13137C728.386 0.716915 731.118 0 734.121 0C737.125 0 739.934 0.678163 742.395 2.05387C744.836 3.41019 746.754 5.32842 748.111 7.76981C749.467 10.2112 750.165 12.982 750.165 16.0434C750.165 19.1048 749.467 21.7981 748.053 24.2395C746.638 26.6809 744.72 28.6185 742.298 30.0329C739.876 31.4474 737.163 32.1449 734.141 32.1449C731.079 32.1449 728.308 31.4668 725.867 30.0717H725.848ZM740.36 26.7778C742.22 25.6927 743.693 24.2201 744.739 22.3213C745.805 20.4418 746.328 18.3492 746.328 16.024C746.328 13.6989 745.805 11.5675 744.759 9.68804C743.732 7.82794 742.279 6.35536 740.419 5.30905C738.558 4.24336 736.446 3.72021 734.102 3.72021C731.757 3.72021 729.781 4.26274 727.921 5.3478C726.061 6.43286 724.588 7.92482 723.503 9.8043C722.418 11.6838 721.876 13.757 721.876 16.024C721.876 18.291 722.399 20.4999 723.464 22.3794C724.53 24.2589 725.983 25.7314 727.843 26.7971C729.704 27.8628 731.796 28.386 734.102 28.386C736.408 28.386 738.481 27.8628 740.341 26.7584L740.36 26.7778ZM734.315 8.04108C736.388 8.04108 737.997 8.5061 739.159 9.41678C740.302 10.3275 740.884 11.6644 740.884 13.4083C740.884 15.3846 739.973 16.8572 738.132 17.7873L742.298 23.5807H737.783L734.315 18.6204C734.083 18.6785 733.714 18.6979 733.249 18.6979H731.971V23.5807H728.231V8.06045H734.296L734.315 8.04108ZM737.066 13.4083C737.066 12.7495 736.853 12.2844 736.388 11.9938C735.943 11.7032 735.168 11.5675 734.082 11.5675H731.951V15.1715H734.082C736.059 15.1715 737.047 14.5708 737.047 13.3889L737.066 13.4083Z" fill="#2687E9"/>
</svg>
