<svg width="32" height="32" viewBox="0 0 32 32" fill="none" xmlns="http://www.w3.org/2000/svg">
<rect width="32" height="32" rx="16" fill="#5AADF1"/>
<path d="M12.5855 21.2708H19.4376V20.1708H12.5855V21.2708ZM12.5855 17.375H19.4146V16.275H12.5855V17.375ZM11.1417 24.7083C10.5806 24.7083 10.1119 24.5201 9.73557 24.1436C9.35912 23.7673 9.1709 23.2986 9.1709 22.7375V9.26246C9.1709 8.70146 9.35912 8.23274 9.73557 7.85629C10.1119 7.47985 10.5806 7.29163 11.1417 7.29163H18.1542L22.8292 11.9437V22.7375C22.8292 23.2986 22.641 23.7673 22.2646 24.1436C21.8881 24.5201 21.4194 24.7083 20.8584 24.7083H11.1417ZM17.5584 12.5625V8.52913H11.1417C10.9584 8.52913 10.7903 8.60551 10.6376 8.75829C10.4848 8.91107 10.4084 9.07913 10.4084 9.26246V22.7375C10.4084 22.9208 10.4848 23.0888 10.6376 23.2416C10.7903 23.3944 10.9584 23.4708 11.1417 23.4708H20.8584C21.0417 23.4708 21.2098 23.3944 21.3626 23.2416C21.5153 23.0888 21.5917 22.9208 21.5917 22.7375V12.5625H17.5584Z" fill="white"/>
</svg>
