<svg width="24" height="24" viewBox="0 0 24 24" fill="none" xmlns="http://www.w3.org/2000/svg">
<path d="M11.9996 1.59961C6.26521 1.59961 1.59961 6.26521 1.59961 11.9996C1.59961 17.734 6.26521 22.3996 11.9996 22.3996C17.734 22.3996 22.3996 17.734 22.3996 11.9996C22.3996 6.26521 17.734 1.59961 11.9996 1.59961ZM9.33242 4.79961H14.6652C17.1652 4.79961 19.1996 6.83322 19.1996 9.33242V14.6652C19.1996 17.1652 17.166 19.1996 14.6668 19.1996H9.33398C6.83398 19.1996 4.79961 17.166 4.79961 14.6668V9.33398C4.79961 6.83398 6.83322 4.79961 9.33242 4.79961ZM9.33242 6.39961C7.71562 6.39961 6.39961 7.71638 6.39961 9.33398V14.6668C6.39961 16.2836 7.71638 17.5996 9.33398 17.5996H14.6668C16.2836 17.5996 17.5996 16.2828 17.5996 14.6652V9.33242C17.5996 7.71562 16.2828 6.39961 14.6652 6.39961H9.33242ZM15.734 7.73242C16.0284 7.73242 16.2668 7.97083 16.2668 8.26523C16.2668 8.55963 16.0284 8.79961 15.734 8.79961C15.4396 8.79961 15.1996 8.55963 15.1996 8.26523C15.1996 7.97083 15.4396 7.73242 15.734 7.73242ZM11.9996 7.99961C14.2052 7.99961 15.9996 9.79401 15.9996 11.9996C15.9996 14.2052 14.2052 15.9996 11.9996 15.9996C9.79401 15.9996 7.99961 14.2052 7.99961 11.9996C7.99961 9.79401 9.79401 7.99961 11.9996 7.99961ZM11.9996 9.59961C11.3631 9.59961 10.7526 9.85246 10.3026 10.3026C9.85246 10.7526 9.59961 11.3631 9.59961 11.9996C9.59961 12.6361 9.85246 13.2466 10.3026 13.6967C10.7526 14.1468 11.3631 14.3996 11.9996 14.3996C12.6361 14.3996 13.2466 14.1468 13.6967 13.6967C14.1468 13.2466 14.3996 12.6361 14.3996 11.9996C14.3996 11.3631 14.1468 10.7526 13.6967 10.3026C13.2466 9.85246 12.6361 9.59961 11.9996 9.59961Z" fill="#595959"/>
</svg>
