<svg width="24" height="24" viewBox="0 0 24 24" fill="none" xmlns="http://www.w3.org/2000/svg">
<path d="M12.0004 2.40039C6.69879 2.40039 2.40039 6.69879 2.40039 12.0004C2.40039 17.302 6.69879 21.6004 12.0004 21.6004C17.302 21.6004 21.6004 17.302 21.6004 12.0004C21.6004 6.69879 17.302 2.40039 12.0004 2.40039ZM8.39719 6.72279C9.07079 6.72279 9.51959 7.17159 9.51959 7.76999C9.51959 8.36839 9.07079 8.81719 8.32279 8.81719C7.64919 8.81799 7.20039 8.36839 7.20039 7.76999C7.20039 7.17159 7.64919 6.72279 8.39719 6.72279ZM9.60039 16.0004H7.20039V9.60039H9.60039V16.0004ZM17.6004 16.0004H15.3412V12.5028C15.3412 11.5356 14.7388 11.3124 14.5132 11.3124C14.2876 11.3124 13.534 11.4612 13.534 12.5028C13.534 12.6516 13.534 16.0004 13.534 16.0004H11.2004V9.60039H13.5348V10.4932C13.8356 9.97239 14.438 9.60039 15.5676 9.60039C16.6972 9.60039 17.6004 10.4932 17.6004 12.5028V16.0004Z" fill="#595959"/>
</svg>
