<svg width="24" height="24" viewBox="0 0 24 24" fill="none" xmlns="http://www.w3.org/2000/svg">
<path d="M12 24C10.3422 24 8.786 23.687 7.33125 23.061C5.8765 22.435 4.60388 21.5769 3.51338 20.4866C2.42313 19.3961 1.565 18.1235 0.939 16.6688C0.313 15.214 0 13.6578 0 12C0 10.3422 0.313 8.786 0.939 7.33125C1.565 5.8765 2.42313 4.60388 3.51338 3.51338C4.60388 2.42313 5.8765 1.565 7.33125 0.938999C8.786 0.312999 10.3422 0 12 0C13.4537 0 14.8595 0.259626 16.2173 0.778876C17.575 1.29813 18.8211 2.03275 19.9556 2.98275L21.0173 4.044C21.9673 5.1785 22.7019 6.425 23.2211 7.78275C23.7404 9.1405 24 10.5463 24 12C24 13.6578 23.687 15.214 23.061 16.6688C22.435 18.1235 21.5769 19.3961 20.4866 20.4866C19.3961 21.5769 18.1235 22.435 16.6688 23.061C15.214 23.687 13.6578 24 12 24ZM12 22.5C14.9 22.5 17.375 21.475 19.425 19.425C21.475 17.375 22.5 14.9 22.5 12C22.5 9.1 21.475 6.625 19.425 4.575C17.375 2.525 14.9 1.5 12 1.5C9.1 1.5 6.625 2.525 4.575 4.575C2.525 6.625 1.5 9.1 1.5 12C1.5 14.9 2.525 17.375 4.575 19.425C6.625 21.475 9.1 22.5 12 22.5ZM9.57675 16.6155L16.5 12L9.57675 7.3845V16.6155Z" fill="#2687E9"/>
</svg>
